<svg viewBox="0 0 242.1 124" height="50">
  <g>
    <path d="M239,57.9c-0.1-0.2-0.2-0.4-0.3-0.6c-0.2-0.2-0.5-0.4-0.8-0.5c-0.2-0.1-0.4-0.1-0.6-0.1c-0.4,0-0.7,0.1-1,0.3
		c-0.1,0.1-0.3,0.2-0.4,0.3c-0.1,0.2-0.2,0.3-0.3,0.5c-0.3,0.6-0.6,1.3-1,2.1c-0.2,0.3-0.3,0.7-0.5,1c-0.3,0.5-0.6,1.1-0.9,1.6
		c-0.5,0.9-1.1,1.8-1.8,2.7c0,0.1-0.1,0.1-0.1,0.2c-0.6,0.8-1.2,1.6-2,2.3c-0.2,0.2-0.5,0.4-0.7,0.6c-0.5,0.4-1.1,0.8-1.6,1.1
		c-0.1,0.1-0.3,0.1-0.4,0.2c-0.7,0.3-1.4,0.5-2.1,0.5H224c-0.9-0.1-1.7-0.5-2.3-1.1c-0.2-0.2-0.4-0.5-0.6-0.8c-0.4-0.6-0.8-1.3-1-2
		c-0.4-1.1-0.6-2.2-0.7-3.3v-0.5c-0.1-0.7-0.1-1.3-0.1-1.8v-0.4l0.6-8.1c0-0.5-0.2-1-0.5-1.4c-0.2-0.2-0.4-0.4-0.7-0.5
		c-0.2-0.1-0.4-0.1-0.6-0.1c-0.5,0-0.9,0.2-1.3,0.5c-0.4,0.3-0.6,0.8-0.6,1.2l-0.7,8.4c-0.1,0.7-0.2,1.4-0.4,2.2
		c-0.2,0.7-0.4,1.4-0.7,2.1c-0.3,0.6-0.5,1.1-0.8,1.6s-0.7,1-1.1,1.4l-1,1c-0.4,0.3-0.8,0.5-1.2,0.7c-0.5,0.2-0.9,0.4-1.3,0.5
		c-0.2,0.1-0.5,0.1-0.8,0.1h-0.5c-1.1-0.1-2.1-0.6-2.7-1.5c-0.5-0.7-0.9-1.6-1-2.7c-0.1-0.5-0.1-1.1-0.1-1.6c0-0.1,0-0.1,0-0.2
		c0-0.8,0-1.5,0.1-2.2c0.1-0.7,0.2-1.4,0.3-2.1c0.2-0.7,0.3-1.4,0.5-2c0.2-0.5,0.3-1,0.5-1.5c0.4-1,0.8-1.8,1.1-2.4
		c0.3-0.5,0.5-0.8,0.6-1.1c0-0.1,0.1-0.2,0.1-0.2c0.1-0.2,0.2-0.4,0.3-0.6v-0.1c0.1-0.2,0.1-0.3,0.1-0.5c0-0.5-0.2-0.9-0.5-1.3
		c-0.3-0.4-0.8-0.6-1.3-0.6c-0.3,0-0.5,0-0.8,0.1c-0.2,0.1-0.4,0.2-0.6,0.4l-0.7,0.9l-0.1,0.1c-0.3,0.4-0.6,0.9-0.9,1.5
		c-0.2,0.3-0.3,0.7-0.5,1c-0.3,0.7-0.6,1.6-0.9,2.6c-0.1,0.4-0.2,0.8-0.4,1.2c-0.2,0.2-0.3,0.4-0.4,0.6c-0.2,0.5-0.5,1-0.8,1.5
		c-0.6,1.1-1.2,2.3-1.9,3.4c-1,1.7-2.1,3.2-3.4,4.5c-1.2,1.3-2.7,2.4-4.3,3.3c-0.5,0.2-0.9,0.5-1.4,0.6c-1.2,0.4-2.5,0.7-3.8,0.7
		h-0.2c0,0,0.1,0,0.1-0.1c0.9-0.6,1.6-1.4,2.4-2.3c0.6-0.8,1.1-1.6,1.5-2.4c0.1-0.1,0.1-0.3,0.2-0.4c0.9-2,1.4-4.5,1.4-7.3V58
		c-0.1-1-0.2-2-0.5-3c-0.1-0.4-0.3-0.9-0.4-1.3c-0.3-0.7-0.6-1.4-1.1-2c0-0.1-0.1-0.1-0.1-0.2c-0.6-0.8-1.3-1.5-2.2-2
		c-0.9-0.5-1.9-0.8-3-0.8c-1.1,0-2.2,0.3-3.2,0.9c-0.4,0.2-0.7,0.5-1.1,0.8c-0.6,0.5-1.1,1-1.6,1.6c-0.3,0.4-0.6,0.8-0.9,1.2
		c-0.5,0.7-1,1.4-1.5,2.2c-0.8,1.2-1.5,2.5-2.2,3.8v-15c0-0.5-0.2-1-0.5-1.3s-0.8-0.5-1.3-0.5s-1,0.2-1.3,0.5s-0.5,0.8-0.5,1.3v1.1
		c0,0.1,0,0.1,0,0.2c0,0.5-0.1,1-0.2,1.7c-0.1,0.4-0.1,0.7-0.2,1.1c-0.1,0.3-0.1,0.6-0.2,0.9c-0.1,0.5-0.2,1.1-0.4,1.6
		c-0.1,0.6-0.3,1.2-0.4,1.7c-0.2,0.7-0.4,1.5-0.7,2.2c-0.2,0.7-0.5,1.4-0.8,2.1c-0.1,0.1-0.2,0.2-0.3,0.3c-0.2,0.2-0.3,0.4-0.4,0.6
		c-0.1,0.2-0.2,0.4-0.3,0.6c-0.1,0.2-0.2,0.4-0.3,0.7s-0.3,0.6-0.4,0.9c-0.2,0.3-0.3,0.6-0.5,1c-0.3,0.6-0.6,1.1-1,1.7
		c-0.6,0.9-1.2,1.8-1.8,2.7c-0.2,0.2-0.3,0.4-0.5,0.7c-0.5,0.6-1,1.2-1.6,1.7c-0.3,0.3-0.5,0.5-0.8,0.7c-0.4,0.4-0.9,0.7-1.4,1
		c-0.2,0.1-0.3,0.2-0.5,0.3c-0.6,0.2-1.2,0.4-1.8,0.4h-0.6c-0.9-0.1-1.7-0.5-2.2-1.2c-0.2-0.3-0.4-0.5-0.6-0.8
		c-0.4-0.6-0.7-1.3-0.9-2.1c-0.3-1.1-0.6-2.2-0.7-3.3c0-0.2,0-0.5-0.1-0.7c-0.1-0.8-0.1-1.4-0.1-1.9c0-0.2-0.1-0.4-0.2-0.6
		c-0.1-0.2-0.2-0.4-0.4-0.6l-0.1-0.1c-0.3-0.3-0.7-0.4-1.1-0.4c-0.5,0-0.9,0.2-1.3,0.5c-0.4,0.3-0.6,0.7-0.6,1.1v0.3
		c-0.2,1.6-0.6,2.9-1.2,4.1c0,0.1-0.1,0.2-0.1,0.2c-0.5,1.1-1.1,2.1-1.8,2.8c0,0,0,0-0.1,0.1c-0.3,0.4-0.6,0.7-1,0.9
		c-0.4,0.3-0.8,0.6-1.2,0.8c-0.8,0.4-1.4,0.6-2,0.6h-0.1c-0.3,0-0.6,0-0.9-0.1c-0.3-0.1-0.7-0.2-1-0.4c-0.6-0.3-1-0.7-1.3-1.3
		c0,0,0,0,0-0.1c-0.3-0.5-0.5-1.1-0.6-1.7s-0.2-1.2-0.2-1.9c0-0.1,0-0.1,0-0.2c0-0.9,0.1-1.7,0.2-2.4c0.1-0.9,0.4-1.7,0.7-2.5
		c0.2-0.5,0.5-1.1,0.8-1.6c0.4-0.7,1-1.4,1.6-2.1c0.2-0.2,0.4-0.3,0.5-0.5c0.8-0.7,1.6-1.2,2.6-1.6c1.1-0.5,2.2-0.7,3.2-0.7
		c0.3,0,0.6,0,0.9,0.1c0.3,0,0.6,0.1,0.9,0.2h0.1c0.5,0.1,0.9,0.3,1.3,0.5c0.2,0.1,0.5,0.2,0.6,0.4c0.1,0.1,0.2,0.1,0.3,0.2l0.1,0.1
		c0.2,0.1,0.3,0.2,0.3,0.3c0.2,0.2,0.3,0.3,0.5,0.4c0.2,0.1,0.5,0.2,0.8,0.2c0.5,0,0.9-0.2,1.3-0.6c0.3-0.3,0.5-0.8,0.5-1.3
		c0-0.3-0.1-0.6-0.2-0.8c-0.1-0.2-0.2-0.3-0.3-0.5c0,0-0.2-0.2-0.4-0.4l-0.1-0.1c-0.3-0.3-0.8-0.6-1.4-0.9c-0.1,0-0.2-0.1-0.3-0.1
		c-0.5-0.3-1.2-0.5-1.9-0.8c-0.4-0.1-0.7-0.2-1.1-0.3c-0.6-0.1-1.1-0.1-1.7-0.1c-0.7,0-1.4,0.1-2.1,0.2c-0.9,0.2-1.7,0.4-2.5,0.8
		c-1.6,0.7-3.1,1.6-4.4,2.9c-0.6,0.6-1.1,1.2-1.6,1.9c-0.4,0.6-0.8,1.3-1.2,1.9c-0.2,0.1-0.4,0.2-0.5,0.4c-0.2,0.2-0.3,0.4-0.4,0.6
		c-0.2,0.4-0.4,0.9-0.7,1.5c-0.1,0.2-0.2,0.4-0.3,0.6c-0.2,0.3-0.3,0.6-0.5,0.9c-0.3,0.6-0.6,1.1-1,1.6c-0.1,0.1-0.1,0.2-0.2,0.3
		c-0.5,0.8-1.1,1.6-1.6,2.3c-0.7,0.9-1.4,1.7-2.1,2.4c-0.3,0.3-0.6,0.5-0.9,0.8c-0.4,0.4-0.9,0.7-1.4,1c-0.2,0.1-0.4,0.2-0.7,0.3
		c-0.5,0.2-1.1,0.3-1.7,0.3c-0.7,0-1.2-0.2-1.7-0.6c-0.4-0.4-0.7-0.9-1-1.5c-0.1-0.3-0.2-0.6-0.3-1c-0.1-0.4-0.1-0.7-0.2-1.1
		c-0.1-0.8-0.1-1.5-0.1-2.3v-0.8c0-1.1,0.1-2.1,0.2-3.2c0.1-0.9,0.2-1.6,0.2-2.2v-0.8c0-0.9-0.1-1.8-0.3-2.5
		c-0.1-0.2-0.1-0.5-0.2-0.7c-0.2-0.5-0.4-0.9-0.7-1.3c-0.4-0.6-0.9-1-1.6-1.4c-0.3-0.2-0.7-0.3-1.1-0.4c-0.4-0.1-0.7-0.1-1.1-0.1
		c-0.5,0-1,0.1-1.6,0.3c-0.4,0.1-0.8,0.3-1.1,0.5c-0.2,0.1-0.4,0.2-0.6,0.4c-0.4,0.3-0.8,0.6-1.2,0.9c-0.4,0.4-0.7,0.7-1.1,1.1
		c-0.1,0.1-0.1,0.1-0.2,0.2c-0.9,1.1-1.8,2.3-2.6,3.5c-0.9,1.3-1.7,2.7-2.5,4c-0.1,0.2-0.2,0.3-0.3,0.5c-0.7,1.1-1.3,2.3-1.9,3.5
		c-0.3,0.6-0.6,1.2-1,1.9c-0.3,0.6-0.6,1.1-0.8,1.7V57.7c1.7-3.2,3.4-6.4,4.9-9.7c1.6-3.3,2.9-6.8,4.1-10.3s2.1-7.1,2.8-10.8
		s1.1-7.5,1-11.3v-1.2c0-1.4-0.2-2.8-0.4-4.2c-0.1-0.8-0.3-1.5-0.5-2.3c-0.2-0.8-0.5-1.5-0.8-2.2c-0.2-0.4-0.4-0.9-0.7-1.3
		c-0.4-0.7-1-1.3-1.6-1.8c-0.5-0.4-1.1-0.7-1.7-0.9c-0.6-0.2-1.1-0.2-1.7-0.2c-1,0-2,0.3-2.8,1c-0.4,0.4-0.8,0.8-1.2,1.3
		c-1.1,1.5-1.9,3.6-2.6,6.4c-0.2,0.7-0.3,1.3-0.5,2c-0.2,1.2-0.4,2.4-0.6,3.8c-0.2,1.4-0.3,2.8-0.5,4.1c-0.2,2.1-0.3,4.1-0.4,6.2
		c-0.1,2.3-0.2,4.6-0.3,6.9c-0.1,4.8-0.2,10-0.2,15.6v8.5c-0.1,0.1-0.1,0.2-0.2,0.3c-0.1,0.2-0.3,0.7-0.7,1.4
		c-0.1,0.2-0.2,0.4-0.3,0.6c-0.2,0.3-0.4,0.7-0.6,1c-0.2,0.4-0.5,0.7-0.7,1.1c-0.4,0.5-0.7,1.1-1.1,1.6c-0.4,0.6-0.9,1.1-1.3,1.7
		l-0.1,0.1c-0.9,1.1-2,2.2-3.2,3.1c-1.2,1-2.6,1.8-4.1,2.4c-0.4,0.2-0.9,0.3-1.3,0.5c-1.2,0.3-2.4,0.5-3.6,0.5c-0.5,0-1,0-1.5-0.1
		c-0.7-0.1-1.4-0.4-2-0.7c-1-0.6-1.8-1.3-2.5-2.2c-0.7-0.9-1.1-2-1.5-3.2c-0.1-0.2-0.1-0.4-0.1-0.6c-0.2-1.1-0.4-2.2-0.3-3.2v-0.5
		c0-1.2,0.2-2.3,0.6-3.5c0.1-0.5,0.3-1,0.5-1.4c0.3-0.6,0.6-1.2,1-1.8c0.2-0.2,0.3-0.4,0.5-0.7c0.5-0.6,1-1.1,1.7-1.6
		c0.8-0.6,1.7-0.8,2.6-0.8c0.2,0,0.5,0,0.7,0.1c0.6,0.1,1.2,0.4,1.7,0.8c0.2,0.2,0.4,0.3,0.5,0.5c0.3,0.4,0.4,0.8,0.4,1.3
		c0,0.3,0,0.6-0.1,0.8c0,0.1-0.1,0.3-0.1,0.4c-0.1,0.2-0.1,0.3-0.2,0.5C78,55.8,78,55.9,77.8,56c-0.1,0.2-0.3,0.4-0.4,0.6
		c-0.1,0.1-0.1,0.2-0.1,0.3v0.4c0,0.5,0.2,0.9,0.5,1.3c0.2,0.2,0.4,0.4,0.7,0.4c0.5,0.2,0.7,0.2,0.9,0.2c0.4,0,0.7-0.1,1.1-0.4
		c0.2-0.2,0.4-0.3,0.5-0.5c0.2-0.2,0.3-0.4,0.4-0.6c0.1-0.2,0.2-0.5,0.3-0.7c0.1-0.3,0.2-0.6,0.3-0.9c0.2-0.6,0.3-1.3,0.3-2
		c0-0.7-0.2-1.5-0.5-2.2c-0.3-0.8-0.8-1.5-1.4-2.1c-0.2-0.2-0.5-0.4-0.7-0.6c-0.5-0.3-1-0.6-1.5-0.8c-0.9-0.4-1.9-0.6-2.9-0.6
		c-1.4,0-2.8,0.4-4.1,1.1s-2.4,1.7-3.3,3c-0.4,0.5-0.8,1.1-1.1,1.7c-0.5,0.9-0.9,1.8-1.2,2.8c-0.1,0.3-0.2,0.5-0.2,0.8
		c-0.2,0.1-0.3,0.2-0.4,0.4c-0.1,0.2-0.3,0.4-0.3,0.6c-0.1,0.2-0.2,0.5-0.3,0.7c-0.4,1-1,2.1-1.6,3.3c-0.8,1.5-1.8,2.9-2.9,4.2
		c-1.1,1.3-2.3,2.3-3.7,3.2c-1.4,0.9-2.8,1.3-4.3,1.3c-1.7,0-3.3-0.6-4.6-1.7c-0.6-0.5-1.2-1-1.7-1.6c-0.7-0.8-1.4-1.7-2-2.6
		c3.8-7,8.4-13.5,13.4-19.7c0.3-0.3,0.4-0.7,0.4-1.2c0-0.2,0-0.5-0.1-0.7c-0.1-0.2-0.2-0.4-0.4-0.6c-0.2-0.2-0.3-0.3-0.5-0.4
		c-0.2-0.1-0.5-0.2-0.8-0.2h-0.4c-0.4,0.1-0.8,0.3-1.1,0.6c-4.7,5.8-9,11.9-12.9,18.2c-0.7-1.4-1.3-2.8-1.8-4.2
		c-0.2-0.7-0.5-1.4-0.7-2.1c-0.2-0.6-0.4-1.3-0.6-1.9c-0.1-0.2-0.1-0.3-0.2-0.5c-0.3-1-0.5-2-0.7-2.8c0-0.2-0.1-0.4-0.1-0.7
		c-0.1-0.4-0.1-0.8-0.2-1.1v-0.4c-0.1-0.5-0.3-0.9-0.6-1.2c-0.2-0.2-0.4-0.3-0.7-0.4c-0.2-0.1-0.4-0.1-0.6-0.1c-0.4,0-0.7,0.1-1,0.3
		s-0.5,0.4-0.7,0.7l-5,10.5c-0.2,0.2-0.3,0.4-0.4,0.6c-0.4,0.9-1,2-1.8,3.5c-0.8,1.4-1.7,2.9-2.7,4.3c-1,1.4-2.1,2.6-3.3,3.6
		c-0.4,0.3-0.8,0.6-1.3,0.9c-0.8,0.4-1.6,0.7-2.5,0.7c-0.8,0-1.6-0.2-2.2-0.6c-0.5-0.3-1.1-0.7-1.5-1.3c-0.4-0.5-0.8-1-1.1-1.6
		c-0.5-0.9-0.9-1.8-1.3-2.7c-0.8-1.9-1.4-4.3-2-7c1.8-3.3,3.5-6.8,5.1-10.2c1.6-3.4,3-6.9,4.1-10.5c1.1-3.4,2.1-6.9,2.8-10.5
		c0.1-0.6,0.2-1.3,0.3-1.9c0.4-2.7,0.7-5.4,0.7-8.1v-1.8c-0.1-1.9-0.2-3.5-0.5-4.9c-0.2-1.1-0.4-2.1-0.7-3c-0.2-0.5-0.4-1-0.6-1.5
		c0-0.1-0.1-0.1-0.1-0.2c-0.6-1-1.3-1.8-2.1-2.2c-0.9-0.5-1.8-0.8-2.9-0.8c-0.8,0-1.6,0.2-2.3,0.6c-0.5,0.3-1,0.6-1.4,1.1
		c-0.2,0.2-0.4,0.4-0.5,0.6C9.8,4.6,9.3,5.2,9,5.8C8.6,6.5,8.1,7.2,7.8,7.9c0,0.2-0.1,0.3-0.1,0.4C7.3,9.2,7,10.2,6.6,11.2
		c-0.3,1.1-0.7,2.2-0.9,3.3c-0.2,0.6-0.3,1.3-0.4,1.9c-0.4,2-0.8,4-1.1,6.1c-0.4,2.8-0.7,5.7-0.9,8.6c0,0.7-0.1,1.5-0.1,2.2
		c-0.1,2.1-0.1,4.2-0.2,6.3v0.8c0,0.8,0,1.7,0.1,2.6c0,1,0.1,2,0.1,3v0.9c0.1,2.2,0.3,4.4,0.6,6.6c0.4,2.7,0.9,5.2,1.5,7.7
		c0.2,1,0.5,1.9,0.8,2.9c0.4,1.3,0.9,2.5,1.5,3.8c0.4,0.7,0.8,1.4,1.2,2.1c0.7,1,1.4,1.8,2.3,2.6c0.6,0.5,1.3,1,2.1,1.3
		c0.9,0.4,1.9,0.5,2.9,0.5c1.2,0,2.5-0.3,3.6-0.8c0,0,0.1,0,0.1-0.1c1.1-0.5,2.1-1.2,3.1-2c1-0.9,1.9-1.9,2.8-2.9
		c0.1-0.1,0.1-0.1,0.2-0.2c0.8-1,1.5-2,2.1-3.1c0.3-0.4,0.5-0.8,0.7-1.2c0.4-0.6,0.7-1.3,1.1-2c0.2-0.3,0.3-0.6,0.5-0.9
		s0.4-0.6,0.5-0.9c0.1-0.1,0.1-0.2,0.2-0.4c0.2-0.2,0.3-0.4,0.4-0.6l2.9-6c0.2,0.9,0.5,1.8,0.8,2.7c0.3,1,0.7,2,1,2.9
		c0.8,2,1.7,4,2.8,5.9c-0.7,1.2-1.5,2.5-2.1,3.8c-0.7,1.3-1.3,2.5-2,3.8c0,0.1-0.1,0.1-0.1,0.2c-0.1,0.3-0.2,0.5-0.2,0.7
		c0,0.3,0.1,0.5,0.2,0.7c0.1,0.2,0.2,0.4,0.3,0.5c0.2,0.2,0.4,0.4,0.7,0.5c0.2,0.1,0.4,0.1,0.7,0.1c0.5,0,0.9-0.1,1.2-0.4
		c0.2-0.2,0.3-0.4,0.4-0.6l1.6-2.9c0.5-1,1.1-2,1.6-2.9c0.2,0.3,0.4,0.5,0.7,0.8c1.2,1.4,2.5,2.6,4,3.5c1.7,1.1,3.7,1.7,5.8,1.7
		c1.7,0,3.3-0.4,4.8-1.1c1.5-0.8,2.9-1.7,4.1-2.9c1.2-1.2,2.3-2.4,3.2-3.7c0.1-0.1,0.1-0.2,0.2-0.3c0.3-0.5,0.7-1,1-1.5
		c0.1,0.8,0.3,1.6,0.5,2.4c0.5,1.7,1.3,3.1,2.3,4.3s2.2,2.2,3.7,2.8c0.7,0.3,1.5,0.6,2.3,0.8c0.9,0.2,1.7,0.3,2.6,0.2h1.2
		c1.6-0.1,3.1-0.4,4.6-1c0.2-0.1,0.3-0.1,0.5-0.2c1.5-0.6,3-1.4,4.3-2.4l0.1-0.1c1.3-1,2.6-2.1,3.7-3.4c0.5-0.5,0.9-1.1,1.4-1.6
		c0.4-0.5,0.8-1.1,1.2-1.7v4.7c0,1.1,0.3,2.1,0.8,2.9s1.3,1.2,2.3,1.2c0.4,0,0.8-0.1,1.2-0.3c0.2-0.1,0.4-0.2,0.6-0.4
		c0.5-0.3,1-0.9,1.5-1.7c0.2-0.3,0.4-0.7,0.6-1c0.3-0.5,0.6-1.2,1-1.9c0.1-0.3,0.3-0.5,0.4-0.8c0.6-1.1,1.2-2.2,1.9-3.4
		s1.4-2.4,2.1-3.6c0.3-0.5,0.6-1,1-1.5c0.4-0.6,0.8-1.2,1.2-1.8c0.1-0.2,0.3-0.3,0.4-0.5c0.3-0.4,0.6-0.7,0.8-1l1-1
		c0.4-0.3,0.7-0.5,1.1-0.7c0.2-0.1,0.4-0.1,0.6-0.1c0.4,0,0.7,0.2,1,0.5c0.3,0.4,0.4,1,0.4,2.1V58c0,0.3-0.1,0.6-0.1,0.9
		s-0.1,0.6-0.1,0.9c-0.1,0.7-0.1,1.3-0.2,2V64c0,1,0.1,2.1,0.3,3.1c0,0.3,0.1,0.6,0.2,0.9c0.2,0.8,0.5,1.6,0.9,2.4
		c0.5,1,1.2,1.8,2.1,2.4c0.6,0.4,1.3,0.7,2.2,0.8c0.5,0.1,1,0.1,1.4,0.1c1.3,0,2.6-0.3,3.7-1c0.1,0,0.2-0.1,0.2-0.1
		c1.1-0.6,2.2-1.4,3.1-2.3c1-1,2-2.1,2.8-3.2c0.1-0.2,0.3-0.4,0.4-0.6c0.1,0.5,0.2,1.1,0.4,1.6c0.1,0.1,0.1,0.3,0.2,0.4
		c0.3,0.9,0.8,1.7,1.4,2.4c0.7,0.8,1.5,1.4,2.5,1.9c1,0.4,2.1,0.7,3.3,0.7c0.9,0,1.9-0.2,2.7-0.6c0.7-0.3,1.3-0.6,1.8-1.1
		c0.7-0.5,1.4-1.1,2-1.8c0.7-0.8,1.4-1.7,1.9-2.6c0.1,0.2,0.2,0.5,0.3,0.7c0.6,1.5,1.4,2.8,2.6,3.8c0.6,0.6,1.4,1.1,2.2,1.4
		c0.8,0.3,1.7,0.4,2.5,0.4c1.3,0,2.6-0.3,3.8-1s2.4-1.5,3.4-2.4c1-1,2-2.1,2.8-3.2c0.3-0.5,0.7-0.9,1-1.4c0.4-0.6,0.8-1.3,1.2-2
		c0.1-0.2,0.3-0.5,0.4-0.7c0.2-0.4,0.4-0.8,0.6-1.1s0.3-0.7,0.5-1c0.1-0.1,0.1-0.3,0.2-0.4c0.1-0.1,0.1-0.2,0.2-0.3
		c0.2-0.1,0.4-0.3,0.5-0.5v6.6c-2.1,4.1-4,8.3-5.7,12.5c-0.3,0.8-0.6,1.6-0.9,2.4c-1.3,3.3-2.5,6.7-3.5,10.2
		c-0.5,1.5-0.9,3.1-1.3,4.6c-0.6,2.3-1.1,4.6-1.6,7c-0.7,3.6-1,6.9-1,9.6c0,0.7,0,1.3,0.1,2c0,0.6,0.1,1.2,0.2,1.7
		c0.1,0.5,0.2,1,0.4,1.5c0.1,0.3,0.2,0.6,0.3,0.9c0.4,0.9,0.8,1.6,1.2,2.1c0.6,0.7,1.3,1.2,2,1.4c0.1,0,0.2,0.1,0.3,0.1
		c0.6,0.2,1.1,0.2,1.6,0.2h0.1c1.7,0,3.3-0.7,4.4-1.9c0.3-0.3,0.6-0.7,0.9-1.1c0.4-0.6,0.9-1.3,1.2-2.1c0.4-0.8,0.7-1.5,1-2.3
		c0.1-0.4,0.3-0.8,0.4-1.2c0.7-2.1,1.2-4.5,1.6-7.3c0.5-3.3,0.9-7,1.1-11.1c0.1-2.1,0.3-4.3,0.4-6.4c0.1-2.3,0.2-4.6,0.2-6.9
		c0.1-2.5,0.1-4.9,0.2-7.4c0-2.6,0.1-5.2,0.1-7.7c0.9-1.6,1.8-3.3,2.6-4.9c0.9-1.7,1.7-3.2,2.6-4.6c0.9-1.4,1.8-2.6,2.7-3.5
		c0.2-0.2,0.3-0.3,0.5-0.5l0.9-0.6c0.4-0.2,0.8-0.3,1.3-0.3c0.4,0,0.8,0.1,1.2,0.4c0.1,0,0.1,0.1,0.2,0.1c0.4,0.2,0.7,0.6,1,1
		c0.2,0.3,0.4,0.7,0.6,1.1c0.1,0.3,0.2,0.6,0.3,0.9c0.2,0.8,0.4,1.8,0.4,3c0,0.6,0,1.2-0.1,1.8c-0.1,0.9-0.3,1.7-0.5,2.5
		c-0.2,0.6-0.4,1.1-0.6,1.6c-0.3,0.6-0.6,1.1-1,1.7c-0.2,0.3-0.5,0.6-0.8,0.9c-0.4,0.4-0.9,0.8-1.4,1.2c-0.2,0.1-0.5,0.3-0.8,0.4
		c-0.5,0.2-1.1,0.3-1.7,0.3c-0.1,0-0.1,0-0.2,0c-0.4,0-0.7-0.1-1-0.3c-0.4-0.2-0.7-0.4-0.9-0.7c-0.3-0.3-0.6-0.7-0.8-1.1
		c-0.2-0.3-0.4-0.5-0.7-0.7c-0.1,0-0.2-0.1-0.2-0.1h-0.1c0,0,0,0-0.1,0c0,0,0,0-0.1,0h-0.6c-0.2,0-0.4,0.1-0.6,0.2
		c-0.2,0.1-0.3,0.2-0.5,0.3l-0.1,0.1l-0.1,0.1c-0.2,0.3-0.3,0.7-0.3,1c0,0.1,0,0.3,0.1,0.4c0.1,0.2,0.1,0.4,0.2,0.5
		c0,0.1,0,0.1,0.1,0.2c0.2,0.4,0.5,0.7,0.8,1.1c0.1,0.1,0.2,0.3,0.3,0.4l0.8,0.8c1.2,1.1,2.7,2,4.3,2.5s3.3,0.8,5,0.8h1.1
		c1.9-0.1,3.7-0.6,5.4-1.4c2-1,3.7-2.2,5.3-3.7c1.3-1.3,2.5-2.7,3.5-4.2c0.1,0.7,0.2,1.3,0.4,1.9c0.1,0.3,0.2,0.6,0.3,0.9
		c0.3,0.8,0.8,1.5,1.3,2.1c0.7,0.8,1.6,1.5,2.5,1.9c0.5,0.2,1,0.4,1.5,0.5c0.6,0.1,1.2,0.2,1.9,0.2c0.9,0,1.9-0.2,2.7-0.6
		c0.7-0.3,1.3-0.6,1.8-1c1.5-1.1,2.8-2.5,4-4.4c0.3,0.9,0.6,1.7,1,2.4c0.5,0.9,1.1,1.6,1.8,2.3c0.7,0.6,1.6,1.1,2.5,1.3
		c0.7,0.2,1.5,0.3,2.3,0.3c1.4,0,2.7-0.3,3.9-1c1.2-0.6,2.4-1.4,3.4-2.4s2-2.1,2.8-3.2c0.4-0.6,0.8-1.1,1.2-1.7
		c0.3-0.5,0.7-1.1,1-1.6c0.4-0.7,0.7-1.3,1-1.8c0.2-0.3,0.3-0.7,0.5-1c0.1-0.1,0.1-0.3,0.2-0.4c0.3-0.6,0.5-1,0.6-1.2
		c0.1-0.2,0.1-0.5,0.1-0.7C239.1,58.4,239.1,58.1,239,57.9z M97.5,50.4V38.5c0.1-2.4,0.1-4.9,0.2-7.5c0.1-2.5,0.2-5,0.4-7.5
		c0.1-2.4,0.3-4.7,0.6-6.9c0.1-1.2,0.3-2.3,0.5-3.4c0.2-0.8,0.3-1.5,0.5-2.3c0.1-0.5,0.3-1,0.4-1.5s0.2-0.9,0.4-1.3
		c0.1-0.4,0.3-0.8,0.5-1.2c0.1-0.2,0.2-0.3,0.3-0.5c0.2-0.2,0.3-0.4,0.5-0.5c0.2-0.3,0.6-0.4,1-0.4c0.6,0,1.2,0.2,1.6,0.6
		c0.2,0.2,0.4,0.4,0.5,0.7c0.2,0.4,0.4,0.8,0.6,1.3c0.2,0.5,0.4,1.1,0.5,1.7c0.2,1.2,0.3,2.3,0.4,3.5v0.1c0.1,1.1,0.1,1.9,0.1,2.4
		V17c-0.1,2.6-0.3,5.3-0.7,7.9c-0.5,2.9-1.1,5.8-1.9,8.6c-0.8,2.9-1.8,5.7-2.9,8.5C99.9,44.8,98.8,47.5,97.5,50.4v0.4h-0.2
		C97.3,50.7,97.4,50.5,97.5,50.4z M7.5,51.4c-0.2-1.7-0.3-3.6-0.4-5.5C7,45.4,7,44.9,7,44.4c-0.1-1.6-0.1-3.1-0.1-4.6
		c0-2.7,0.1-5.5,0.2-8.2c0-0.7,0-1.4,0.1-2.1c0.2-2,0.4-3.9,0.6-5.9c0.1-0.9,0.3-1.9,0.4-2.8c0.2-1.4,0.5-2.9,0.8-4.3
		c0.2-1.3,0.5-2.4,0.8-3.5c0.2-0.8,0.4-1.5,0.7-2.3c0.2-0.5,0.3-0.9,0.5-1.3c0.2-0.5,0.4-1,0.6-1.4c0.3-0.4,0.5-0.8,1-1.1
		c0.1,0,0.1-0.1,0.1-0.1c0.6-0.9,1.2-1.3,1.9-1.3c0.2,0,0.4,0,0.6,0.1c0.5,0.2,1,0.7,1.4,1.4c0.1,0.3,0.3,0.7,0.4,1
		c0.2,0.4,0.3,0.9,0.4,1.3c0.3,1.6,0.5,3.9,0.5,6.9c0,1,0,1.9-0.1,2.9c-0.2,2-0.4,3.9-0.8,5.8c-0.6,3-1.4,6.1-2.3,9.1
		c-1,3-2.1,6-3.3,9c-0.3,0.7-0.6,1.5-0.9,2.2C9.5,47.3,8.6,49.4,7.5,51.4z M168.6,79.6c0,1.6-0.1,3.2-0.1,4.8
		c-0.1,3.3-0.3,6.5-0.5,9.8c-0.1,0.8-0.1,1.6-0.2,2.4c-0.2,2.3-0.4,4.6-0.7,6.9c-0.1,0.2-0.1,0.4-0.1,0.6c-0.2,1.4-0.4,2.7-0.6,3.9
		c-0.2,1.2-0.4,2.4-0.7,3.5c-0.2,0.6-0.3,1.2-0.5,1.8c-0.2,0.7-0.5,1.4-0.7,2c-0.2,0.6-0.5,1.2-0.8,1.7c-0.3,0.6-0.7,1.1-1.1,1.4
		c-0.5,0.4-1.1,0.6-1.7,0.6h-0.3c-0.4,0-0.8-0.2-1.1-0.5c-0.3-0.4-0.6-0.8-0.8-1.4c-0.1-0.2-0.1-0.4-0.2-0.6
		c-0.1-0.4-0.2-0.8-0.2-1.2c-0.1-0.6-0.1-1.2-0.1-1.8c0-2.2,0.2-4.8,0.7-7.7c0.3-1.4,0.5-2.7,0.8-4c0.4-1.9,0.8-3.7,1.3-5.5
		c0.3-1,0.5-1.9,0.8-2.9c0.8-2.6,1.6-5.1,2.5-7.6c1.3-3.7,2.7-7.3,4.3-10.8C168.6,76.5,168.6,78,168.6,79.6z" />
  </g>
</svg>